<svg xmlns="http://www.w3.org/2000/svg" viewBox="0 0 1175 57"><defs><style>.cls-1,.cls-2{fill:#fff;}.cls-1{opacity:0.5;}.cls-3{fill:none;stroke:#fff;stroke-miterlimit:10;stroke-width:2px;opacity:0.75;}</style></defs><title>Asset 2</title><g id="Layer_2" data-name="Layer 2"><g id="Layer_3" data-name="Layer 3"><rect class="cls-1" x="28.5" width="1118" height="57"/><polygon class="cls-1" points="1146.5 0 1175 28.5 1146.5 57 1146.5 0"/><polygon class="cls-1" points="28.5 57 0 28.5 28.5 0 28.5 57"/><rect class="cls-2" x="187.03" y="11.53" width="33.94" height="33.94" transform="translate(79.9 -135.9) rotate(45)"/><path class="cls-3" d="M14.5,28h34l4-14,5,30,7-19v9l8-15,6,25V23l6,12,6-21,7,30,10-30V36l8-8h41l6,16,2.57-15.41L167.5,14l5,14h87l3-9,6,25,5-16,5,9,8-23V49l9-21,6,15,6-29,5,15h55l5-15,4,26,4-21,4,18,7-23,5,35,7-30,4,20,5-11h106l9-22,11,43,11-35,6,24,5-23V37l7-23V37l12-31,8,38,8-28V36l11-14,7,6h37l5-12,4,21,7-18,5,9s4-27,4-22,6,34,6,34l4-20,4,8,6-9,5,18,7.5-7.5"/><polyline class="cls-3" points="708.5 28 749.5 28 755.5 44 758.07 28.59 760.5 14 765.5 28 852.5 28 855.5 19 861.5 44 866.5 28 871.5 37 879.5 14 879.5 49 888.5 28 894.5 43 900.5 14 905.5 29 960.5 29 965.5 14 969.5 40 973.5 19 977.5 37 984.5 14 989.5 49 996.5 19 1000.5 39 1005.5 28 1111.5 28 1118.5 14 1123.5 45 1131.5 10 1137.5 40 1137.5 17 1146.5 37.4 1146.5 27 1163.5 28"/></g></g></svg>